<svg xmlns="http://www.w3.org/2000/svg" width="24" height="24" viewBox="0 0 24 24" fill="none" className="nav-icon">
	<path d="M10.9458 0.0702925C9.66606 0.267168 8.52231 0.876543 7.627 1.8281C6.64263 2.87342 6.13169 4.08279 6.06138 5.53123C5.96294 7.55623 6.95669 9.49217 8.67231 10.6125C9.51606 11.1656 10.327 11.4469 11.3114 11.5265C13.1348 11.6672 14.6911 11.0953 15.9473 9.81561C16.9458 8.80311 17.452 7.69685 17.5739 6.28592C17.7426 4.40154 17.0301 2.64842 15.6098 1.42029C14.6911 0.632792 13.8473 0.239042 12.6801 0.0702925C12.1176 -0.00939465 11.4614 -0.014082 10.9458 0.0702925Z" fill="white" />
	<path d="M6.68953 11.6297C4.57078 11.8547 3.09891 13.3734 2.41453 16.0547C1.95984 17.8406 1.84266 19.9875 2.13328 21.1641C2.37234 22.1063 3.15516 23.0625 4.05984 23.5219C4.46766 23.7281 5.05359 23.8969 5.54578 23.9531C5.83641 23.9906 8.04891 24 12.2817 23.9906L18.5864 23.9766L18.9848 23.8641C20.4661 23.4609 21.4786 22.4672 21.8489 21.0703C22.0411 20.3438 22.0177 18.6094 21.7927 17.2406C21.3005 14.1938 20.0536 12.3656 18.0802 11.7938C17.6302 11.6625 16.8239 11.5641 16.5848 11.6109C16.3552 11.6531 16.0364 11.8219 15.3145 12.2859C14.5458 12.7828 14.438 12.8391 13.8614 13.0547C13.1958 13.3031 12.6473 13.4109 12.0052 13.4109C11.3489 13.4109 10.8427 13.3172 10.177 13.0828C9.5489 12.8578 9.52078 12.8438 8.53641 12.2203C8.02078 11.8922 7.6364 11.6813 7.48641 11.6391C7.22391 11.5734 7.22391 11.5734 6.68953 11.6297Z" fill="white" />
</svg>